<svg height="512pt" viewBox="0 -31 512 512" width="512pt" xmlns="http://www.w3.org/2000/svg"><path d="m256 450h-247.210938l67.019532-66.019531c-47.738282-42.117188-75.808594-99.214844-75.808594-158.980469 0-124.070312 115.390625-225 256-225s256 100.929688 256 225-115.390625 225-256 225zm0 0" fill="#25d9f8"/><path d="m512 225c0-124.070312-115.390625-225-256-225v450c140.609375 0 256-100.929688 256-225zm0 0" fill="#00c0f1"/><path d="m256 360c-74.441406 0-135-60.558594-135-135s60.558594-135 135-135 135 60.558594 135 135-60.558594 135-135 135zm0 0" fill="#deecf1"/><path d="m391 225c0-74.441406-60.558594-135-135-135v270c74.441406 0 135-60.558594 135-135zm0 0" fill="#c6e2e7"/><path d="m271 255h-30v-15c0-18.589844 7.28125-25.28125 18.222656-29.617188 3.179688-1.261718 5.289063-2.082031 8.394532-5.890624 1.554687-1.890626 3.382812-5.066407 3.382812-9.492188 0-8.277344-6.722656-15-15-15-8.273438 0-15 6.722656-15 15h-30c0-24.8125 20.1875-45 45-45 24.816406 0 45 20.1875 45 45 0 10.371094-3.601562 20.480469-10.164062 28.492188-7.617188 9.300781-15.046876 12.582031-19.789063 14.484374-.03125.542969-.046875 1.21875-.046875 2.023438zm.308594-19.292969" fill="#3e5959"/><path d="m271 195c0 4.425781-1.832031 7.601562-3.382812 9.492188-3.105469 3.808593-5.214844 4.628906-8.394532 5.890624-1.183594.46875-2.132812 1.121094-3.222656 1.65625v42.960938h15v-15c0-.804688.015625-1.480469.042969-2.019531 4.746093-1.90625 12.171875-5.1875 19.789062-14.488281 6.5625-8.011719 10.167969-18.121094 10.167969-28.492188 0-24.8125-20.1875-45-45-45v30c8.277344 0 15 6.722656 15 15zm0 0" fill="#384949"/><path d="m241 270h30v30h-30zm0 0" fill="#3e5959"/><path d="m256 270h15v30h-15zm0 0" fill="#384949"/></svg>